# xmcd
#
# Track frame offsets:
#	182
#	24135
#	50110
#	73882
#	90897
#	120150
#	143955
#	166680
#	188337
#	216077
#	235457
#	259995
#
# Disc length: 3825 seconds
#
# Revision: 0
# Processed by: cddbd v1.5PL3 Copyright (c) Steve Scherf et al.
# Submitted via: audiograbber 1.80
#
DISCID=9b0eef0c
DTITLE=Scheffer Croci - DJ Shopping Dance Now 4
DYEAR=1900
DGENRE=
TTITLE0=La Bouche - Sweet Dreams
TTITLE1=MC Sar and The Real Mccoy - Run Away
TTITLE2=It'n Run - Jump'94
TTITLE3=DJ Jazzy Jeff and The Freshprince - Boom! Shake the Room
TTITLE4=Le Click - Tonight is the night
TTITLE5=AB Logic - Real World
TTITLE6=Loft - Love is Magic
TTITLE7=DR. Alban - Away From Home
TTITLE8=Minnesota - Without You
TTITLE9=Musical Youth - Pass the Dutchie
TTITLE10=M People - Moving on Up
TTITLE11=More Than A Beat - Reggae Night
EXTD=
EXTT0=
EXTT1=
EXTT2=
EXTT3=
EXTT4=
EXTT5=
EXTT6=
EXTT7=
EXTT8=
EXTT9=
EXTT10=
EXTT11=
PLAYORDER=
